<svg id="Layer_1" data-name="Layer 1" xmlns="http://www.w3.org/2000/svg" xmlns:xlink="http://www.w3.org/1999/xlink" viewBox="0 0 375 375"><defs><style>.cls-1{fill:none;}.cls-2{fill:#ebd397;}.cls-3{fill:#f8e0aa;}.cls-4{fill:#f3e7c8;}.cls-5{clip-path:url(#clip-path);}.cls-6{fill:#7e9da8;}.cls-7{fill:#c2cc8f;}.cls-8{clip-path:url(#clip-path-2);}.cls-9{fill:#e28872;}</style><clipPath id="clip-path"><rect class="cls-1" x="48.19" y="34.35" width="245.71" height="306.12"/></clipPath><clipPath id="clip-path-2"><rect class="cls-1" x="6.43" y="75.29" width="358.37" height="237.11"/></clipPath></defs><g id="surface1"><rect class="cls-2" width="375" height="375"/><path class="cls-3" d="M157.2,248.9l-.22-.19c0-.32-.06-.64-.13-1-.76-3-1.49-6-2.28-8.92-.75-2.8-1.52-5.59-2.35-8.36-.51-1.69-1.44-2.12-3.11-1.65-.65.19-1.29.43-2,.6a2.63,2.63,0,0,0-1.84,3.39c.89,3,1.64,6,2.61,8.94s2.1,5.93,3.27,8.84c.56,1.4,1.53,1.66,2.88,1a7.48,7.48,0,0,0,1.87-1.06A9.49,9.49,0,0,0,157.2,248.9Zm2.14,19.81a7,7,0,0,0-4.62-6.92c-3.14-1.06-5.36-.26-7.66,2.53a8.4,8.4,0,0,0-2,6.05,6.88,6.88,0,0,0,6.7,6.44A7.76,7.76,0,0,0,159.34,268.71Zm-28.65,8.89a8.77,8.77,0,0,0-3.34-7,6.62,6.62,0,0,0-9.61,1.08,8.36,8.36,0,0,0,.08,9.65,7.22,7.22,0,0,0,8.3,3.15A7,7,0,0,0,130.69,277.6Zm28-80.56c.53-.18,1.07-.34,1.6-.54a29,29,0,0,1,4-1.51c6.46-1.36,12.93-2.61,19.39-3.91,2.1-.42,4.2-.84,6.29-1.31,1.32-.3,1.88-1.05,1.58-2.23a13.73,13.73,0,0,0-1.07-2.91,2.92,2.92,0,0,0-3.08-1.66c-3.31.74-6.61,1.5-9.92,2.23-5.43,1.19-10.88,2.33-16.32,3.53-1.84.41-3.68.89-5.5,1.39-.85.23-1.42.72-1,1.74.58,1.28,1.11,2.59,1.74,3.85A2.33,2.33,0,0,0,158.72,197Zm-5.23,30.24a8.55,8.55,0,0,0,9,8.77,9.35,9.35,0,0,0,9.38-9.32,8.94,8.94,0,0,0-9.12-8.87C157.82,217.93,153.11,222.48,153.49,227.28Zm36.88-34.19-5.62,1.35c-8,1.91-16.07,3.81-24.1,5.75a40.37,40.37,0,0,0-4.91,1.52,1.88,1.88,0,0,0-1.22,2.6c.2.8.42,1.59.7,2.37a2.33,2.33,0,0,0,3.11,1.65c1.9-.49,3.78-1.07,5.69-1.53,8.56-2,17.12-4,25.68-6.09a26.56,26.56,0,0,0,4.05-1.4,1.7,1.7,0,0,0,.87-2.63,13.67,13.67,0,0,0-1.28-2A3.7,3.7,0,0,0,190.37,193.09ZM153.94,166a14.85,14.85,0,0,0,14.84,14.74c8.34-.08,14.8-6.22,14.77-14.82a14.53,14.53,0,0,0-14.88-14.77A14.77,14.77,0,0,0,153.94,166Zm36-9.9c.31,1.16.55,2.35.93,3.49.62,1.85,1.42,3.65,2,5.52a36.62,36.62,0,0,1,.57,3.8c.63,3.71,2.7,5.45,6.25,5.16a12.68,12.68,0,0,0,3.34-.71c2.68-1,5.28-2.21,8-3.11,3.14-1.06,6.38-1.83,9.55-2.81a8.32,8.32,0,0,0,5.42-9.27,9.77,9.77,0,0,0-4.07-6.32c-3.82-3-8.06-4.81-13-4.43-4.08.32-8.17.71-12.21,1.4A7.93,7.93,0,0,0,189.9,156.07ZM127,237.6a16.91,16.91,0,0,0-12.93,5.27c-3.4,3.37-3.56,7-1.82,11.26,1.1,2.68,3.43,4.25,5.76,5.77,4.62,3,9.36,5.8,13.1,10,2.34,2.65,5.23,2.47,7.84.05s4.34-5.42,6.2-8.34a23.68,23.68,0,0,0,3.54-8.14,7.06,7.06,0,0,0-3.89-8.12c-2.76-1.45-5.47-3-8.17-4.55C133.52,239,130.4,237.35,127,237.6Zm44.2,3.15a8,8,0,0,0,5,7.51,12.57,12.57,0,0,0,7.78.64,28.77,28.77,0,0,0,9.46-4,37.54,37.54,0,0,0,5.82-4.53,6.76,6.76,0,0,0,2.14-6.85c-.62-2.27-1.5-4.47-2.28-6.69-.6-1.71-1.35-3.4-1.78-5.15a47.58,47.58,0,0,1-.71-5.09,10.93,10.93,0,0,0-4.89-8.1,7.07,7.07,0,0,0-5.53-1.13,17.35,17.35,0,0,0-11.69,8.38c-1.84,3-2.77,6.17-1.75,9.63s.51,6.92-.49,10.34C171.75,237.37,171.52,239.08,171.18,240.75Zm-73-91.21a8.09,8.09,0,0,0,.86-.07c3.76-.73,7.52-1.45,11.27-2.19,7.76-1.53,15.54-3,23.26-4.64,13.53-2.95,27-6,40.54-9.1,2.33-.53,4.63-1.25,6.93-1.91.88-.26,1.71-.74,1.5-1.79a41.62,41.62,0,0,0-1.37-5.27,2.64,2.64,0,0,0-2.39-1.74,10.52,10.52,0,0,0-2.69,0c-5,.85-10,1.69-15,2.66q-10.17,2-20.29,4.18-18.27,3.95-36.49,8c-2.79.62-5.54,1.43-8.31,2.17-1.86.5-2.65,1.39-2.33,3.15a21.66,21.66,0,0,0,1.58,4.87A2.91,2.91,0,0,0,98.18,149.54ZM228.39,138a3,3,0,0,0,.3-.18,11.73,11.73,0,0,0-.16-2c-.33-1.5-.84-3-1.15-4.45-1.29-6.2-2.58-12.38-3.77-18.6-.72-3.82-1.24-7.69-1.86-11.53-.5-3.1-1-6.21-1.52-9.31-.19-1.13-.67-2-2-1.85-.78.06-1.57.06-2.34.17q-8.6,1.23-17.19,2.5c-3.18.47-6.35,1-9.53,1.48A1.76,1.76,0,0,0,187.54,96a10.45,10.45,0,0,0,.13,2.68c.54,2.58,1.21,5.14,1.8,7.72,2.09,9.28,4.09,18.58,6.28,27.83.72,3.05,1.92,6,2.93,9,.09.28.47.46.71.68.2-.24.48-.44.57-.72,1.12-3.54,2.19-7.11,3.31-10.65,1.59-5.05,3.06-10.15,5.41-14.93.18-.36.38-.72.59-1.1a3.56,3.56,0,0,1,.39.27c3.28,3.94,6.52,7.91,9.85,11.8,2.54,3,5.19,5.83,7.81,8.72A5,5,0,0,0,228.39,138ZM96.45,130.84c.53-.06,1.06-.09,1.58-.2,5.56-1.17,11.1-2.32,16.65-3.5l26.88-5.77,17.58-3.73c5.07-1.07,10.13-2.13,15.18-3.23,1.24-.27,2.48-.72,2.64-2.25a6.9,6.9,0,0,0-.2-1.91c-.47-2.41-.88-4.85-1.5-7.22s-2.21-3.17-4.59-2.71c-2.21.43-4.42.77-6.63,1.16q-8.32,1.47-16.64,2.94l-12.74,2.24c-5.2.9-10.4,1.75-15.59,2.7-4.66.84-9.32,1.71-14,2.71s-9.25,2.13-13.86,3.25c-1.52.38-2.57,1.78-2.25,3,.8,2.89,1.58,5.8,2.54,8.64C92.28,129.12,93.88,131,96.45,130.84ZM246.76,257.33h-.23c0-2.11.07-4.22,0-6.33a26.33,26.33,0,0,0-.56-4.24c-.51-2.41-1.61-3.06-4-2.62-4.75.85-9.52,1.59-14.23,2.56-10.32,2.12-20.63,4.35-30.94,6.54l-23,4.83c-3.53.73-7.08,1.37-10.6,2.16-2.32.52-3.12,1.92-2.65,4.22.11.52.16,1.06.3,1.57.78,2.83,1.41,5.7,2.42,8.44.78,2.12,2.71,2.91,4.91,2.5l11.37-2.14c9.22-1.77,18.47-3.44,27.67-5.34,10.35-2.13,20.67-4.43,31-6.7,2.16-.47,4.3-1.06,6.42-1.7,1.76-.53,2.16-1.19,2.13-3Zm-4.67-18.89c-.07-.49-.09-1-.19-1.49-1-5.06-1.93-10.12-2.86-15.18-1.59-8.62-3.06-17.26-4.74-25.86-1.35-6.95-3.08-13.83-4.39-20.78-.59-3.18-1.4-2.86-4-2.77l-.22,0-25.75,5.29c-1.82.38-2.26,1.32-1.84,3.11.86,3.69,1.69,7.39,2.38,11.12,1,5.41,1.77,10.87,2.76,16.28,2.22,12.07,4.5,24.12,6.76,36.17.21,1.15.72,1.64,1.87,1.66a7.91,7.91,0,0,0,1.29,0c4.56-.75,9.13-1.4,13.65-2.28s8.94-2,13.4-3C241.94,240.29,242.08,240.12,242.09,238.44Zm-90.22-20c-.14-.66-.27-1.33-.42-2-.7-3.17-1.52-6.32-2.06-9.52-.47-2.74-.59-5.54-.89-8.31-.4-3.61-.79-7.24-1.25-10.85s-.91-7.52-1.61-11.23c-1.23-6.56-2.66-13.08-4-19.62-.33-1.6-1.08-2.1-2.83-1.8s-3.29.63-4.93,1q-7.4,1.54-14.78,3.12a149.94,149.94,0,0,0-19,4.83,2.68,2.68,0,0,0-1.92,3.14c.27,1.81.53,3.61.9,5.39,1.92,9.23,3.76,18.49,5.87,27.67,2.35,10.17,5,20.28,7.45,30.41.41,1.69,1.31,2.27,3,1.87,2.67-.64,5.36-1.25,8-2.06,6-1.85,11.89-3.72,17.77-5.77,3-1.06,5.91-2.55,8.89-3.77A2.33,2.33,0,0,0,151.87,218.45ZM144,288.87l-27.17,6.58c-1.54.37-2.47.12-3.15-1.33a38.64,38.64,0,0,1-2.76-7.07c-2-8.37-3.82-16.77-5.69-25.17-1.4-6.34-2.75-12.69-4.16-19-2.41-10.84-4.85-21.66-7.25-32.5-1-4.49-2-9-2.82-13.52-.79-4.16-1.43-8.36-2.12-12.54-.82-5-1.57-10-2.43-15-1-5.9-2.1-11.79-3.17-17.68C82.16,145.4,81,139.19,79.9,133Q78,122.45,76.21,111.91c-.48-2.78-.86-5.57-1.29-8.36a2.31,2.31,0,0,1,2.12-2.9c2.73-.35,5.48-.51,8.19-.91,3.35-.5,6.68-1.13,10-1.76q8.14-1.55,16.28-3.16,7.67-1.53,15.31-3.14c10.33-2.16,20.64-4.45,31-6.47,5.7-1.12,11.47-1.86,17.22-2.67,5.51-.77,11-1.41,16.55-2.14,5.15-.69,10.3-1.46,15.46-2.14,4.7-.62,9.4-1.18,14.11-1.76,1-.13,2-.35,3.07-.4,1.58-.09,2,.25,2.25,1.78.54,3.16,1.05,6.34,1.53,9.51.73,4.72,1.41,9.45,2.14,14.17.64,4.19,1.31,8.38,2,12.57,0,.24.14.48.2.71.22,1.58.4,3.16.66,4.73.55,3.24,1.15,6.48,1.73,9.72,1,6.29,2.09,12.59,3.11,18.9.84,5.17,1.64,10.35,2.49,15.53.32,2,.7,3.91,1.06,5.87s.58,4.14.88,6.21.44,4,.71,5.93c.23,1.68.52,3.37.79,5.05.2,1.33.42,2.67.63,4,.51,3.31,1,6.63,1.54,9.95.21,1.14.39,2.29.63,3.43.41,1.94.85,3.86,1.28,5.78.07.68.1,1.36.23,2,.7,3.46,1.43,6.92,2.14,10.38,0,.21,0,.43.05.64q1.8,9.14,3.62,18.29c.36,1.79.73,3.59,1.09,5.38a3.86,3.86,0,0,0,0,.76c1,5.08,1.87,10.17,2.92,15.22.5,2.38.48,2.8-1.85,3.41-7.08,1.84-14.19,3.61-21.29,5.38-2.17.54-4.36,1-6.55,1.5-1.46.22-2.93.44-4.4.69-.11,0-.2.25-.29.38a3.09,3.09,0,0,0-.93-.14c-1.65.28-3.28.62-4.93.92l-11.13,2-4.81.87-.18.2h0a7.61,7.61,0,0,0-1.07,0c-4.22.73-8.44,1.44-12.64,2.23-5.4,1-10.79,2.07-16.17,3.14-2.8.55-5.59,1.16-8.38,1.74-.31,0-.63,0-.94.08L144,288.87"/><path class="cls-4" d="M217.18,301.36l.3.1c0,.46,0,.94,0,1.4.13,2.12,1.33,3.5,3.22,3.66,3.35.3,6.7.53,10,.88s6.6.79,9.9,1.21c3.93.51,7.86,1.07,11.79,1.55,4.3.52,8.59,1,12.9,1.45a21.92,21.92,0,0,0,4.58.05,2,2,0,0,0,1.76-2.68,17.06,17.06,0,0,0-1.05-2.93,3.55,3.55,0,0,0-3-2.12c-2.7-.29-5.41-.54-8.1-.91q-6.42-.87-12.83-1.88c-6.32-1-12.62-2.12-18.93-3.12-2.57-.41-5.17-.67-7.76-1a1.43,1.43,0,0,0-1.75,1.05C217.91,299.19,217.53,300.28,217.18,301.36ZM260.26,155a24.48,24.48,0,0,0,.15,2.58c1.38,8.36,8,13.59,16,14.3a20.65,20.65,0,0,0,20.47-12,16.42,16.42,0,0,0-.29-15.21c-3.29-6.1-8.76-8.87-15.53-9.12a20.13,20.13,0,0,0-10.81,3.08A18.89,18.89,0,0,0,260.26,155Zm-15.88,35.78c-.21-1.33-.43-2.67-.63-4,.55.08,1.13.14,1.68.26q16.1,3.36,32.16,6.76c3.25.69,6.48,1.43,9.72,2.15a1.87,1.87,0,0,0,2.53-1.92c0-.36.08-.71.11-1.06.11-1.5.31-3,.29-4.49-.06-2.25-1-3.32-3.17-3.81-4.12-.92-8.25-1.74-12.35-2.69-10.75-2.47-21.54-4.71-32.47-6.18q-.45-3.11-.88-6.21c2.48.13,5,.31,7.46.39a1.79,1.79,0,0,0,1.9-1.67c1-5,2.12-10.07,3.13-15.11,1-4.79,1.89-9.59,2.82-14.4.15-.77.32-1.54.41-2.31a1.73,1.73,0,0,0-1.46-2c-4.22-1.14-8.41-2.34-12.65-3.41-2.73-.69-5.51-1.17-8.27-1.75-.58-3.24-1.18-6.48-1.73-9.72-.26-1.57-.44-3.15-.66-4.73l7.31,1,9.83,1.4q4.56.65,9.1,1.25c3.12.39,6.23.73,9.34,1.13q4.08.52,8.15,1.11,4.86.72,9.72,1.47c3.47.54,7,1.11,10.44,1.66l14,2.22c1.06.17,2.1.39,3.16.56,2.41.4,3.33,2.29,2.81,4.57-1.06,4.66-2.08,9.34-3.43,13.92q-4.5,15.21-8,30.65c-2.74,12.14-5.36,24.3-8,36.46-.73,3.41-1.3,6.86-1.94,10.29a6,6,0,0,0,0,.85c-.25,1.37-.53,2.73-.75,4.1q-1.05,6.7-2.05,13.42c-.5,3.32-1,6.63-1.43,9.95-.4,2.93-.8,5.87-1.15,8.8s-.58,5.68-.91,8.51c-.46,3.9-1,7.78-1.46,11.68-.43,3.46-.86,6.93-1.25,10.4a21.8,21.8,0,0,0,0,2.29c-.29,1.38-.63,2.74-.86,4.13-.72,4.11-1.39,8.22-2.09,12.33-.59,3.43-1.23,6.87-1.81,10.3-.27,1.57-1.09,2.44-2.69,2.31-3.76-.31-7.52-.71-11.27-1.15-2.86-.34-5.71-.79-8.57-1.2l-9.83-1.41L239,316.42c-2.86-.41-5.71-.85-8.57-1.22-3.14-.42-6.29-.77-9.44-1.14-3-.35-5.95-.71-8.92-1-1.7-.18-3.4-.36-5.11-.46-4.21-.25-8.42-.46-12.63-.66-3.57-.16-7.15-.35-10.72-.4-4.31-.08-8.61.05-12.92,0-6.19-.15-12.37-.4-18.55-.65-2.32-.09-4.64-.26-6.95-.43a4.66,4.66,0,0,1-1.66-.36c-1.15-.53-1.8-.55-1.46-3.19.5-3.89,1.07-7.76,1.51-11.65.24-2.09.28-4.21.41-6.31l18.33-3.78c.31-.06.63,0,.94-.08q-.93,5.12-1.88,10.22c-.36,1.92.25,3.12,2.18,3.5,4.66.94,9.32,1.85,14,2.58,4.94.77,9.94,1.19,14.86,2a3.62,3.62,0,0,0,4.48-2.6,30.07,30.07,0,0,0,1.14-4.46c.7-3.94,1.26-7.9,2-11.84.4-2.21,1-4.39,1.5-6.58h0l.18-.2,4.81-.87c0,.28-.08.56-.13.84-.6,3.37-1.6,6.66-1.43,10.14.14,2.89,2,4.41,4.78,3.67a17.86,17.86,0,0,1,6-.65c1.35.11,2.69.39,4,.39a5.16,5.16,0,0,0,5.39-4.4,19.59,19.59,0,0,0,.21-4.9c-.18-2.73-.28-5.51-1.9-7.91.09-.13.18-.36.29-.38,1.47-.25,2.94-.47,4.4-.69.16,1.2.25,2.42.49,3.6a24.8,24.8,0,0,0,22.69,20.05A23.85,23.85,0,0,0,266.05,293a24.35,24.35,0,0,0,11.87-18.72,25.09,25.09,0,0,0-23-27.61c-.36-1.79-.73-3.59-1.09-5.38q-1.81-9.15-3.62-18.29c0-.21,0-.43-.05-.64l.73.15c7.56,1.36,15.11,2.73,22.67,4,1.76.31,3.53.56,5.3.7a1.9,1.9,0,0,0,2.11-2c.11-1,.31-2.05.37-3.08.2-3.64.14-5-3.91-5.84l-.42-.09c-5.67-1.15-11.35-2.24-17-3.46-4.09-.87-8.14-1.9-12.21-2.87-.43-1.92-.87-3.84-1.28-5.78-.24-1.14-.42-2.29-.63-3.43.28.05.56.09.84.16,9.81,2.49,19.57,5.19,29.56,6.91,1.73.3,3.44.65,5.17.93a1.48,1.48,0,0,0,1.85-.9c.44-1.24.9-2.49,1.24-3.77a1.83,1.83,0,0,0-1.45-2.53c-1.78-.54-3.55-1.1-5.34-1.6q-11.94-3.35-23.88-6.63c-3.17-.87-6.36-1.68-9.53-2.52"/><g class="cls-5"><path class="cls-6" d="M154.72,261.79c-3.14-1.06-5.36-.26-7.66,2.53a8.4,8.4,0,0,0-2,6.05,6.88,6.88,0,0,0,6.7,6.44,7.76,7.76,0,0,0,7.56-8.1A7,7,0,0,0,154.72,261.79Zm30-67.35c-8,1.91-16.07,3.81-24.1,5.75a40.37,40.37,0,0,0-4.91,1.52,1.88,1.88,0,0,0-1.22,2.6c.2.8.42,1.59.7,2.37a2.33,2.33,0,0,0,3.11,1.65c1.9-.49,3.78-1.07,5.69-1.53,8.56-2,17.12-4,25.68-6.09a26.56,26.56,0,0,0,4.05-1.4,1.7,1.7,0,0,0,.87-2.63,13.67,13.67,0,0,0-1.28-2,3.7,3.7,0,0,0-3-1.61Zm61.17,6.29c.28.05.56.09.84.16,9.81,2.49,19.57,5.19,29.56,6.91,1.73.3,3.44.65,5.17.93a1.48,1.48,0,0,0,1.85-.9c.44-1.24.9-2.49,1.24-3.77a1.83,1.83,0,0,0-1.45-2.53c-1.78-.54-3.55-1.1-5.34-1.6q-11.94-3.35-23.88-6.63c-3.17-.87-6.36-1.68-9.53-2.52C244.89,194.09,245.41,197.41,245.92,200.73Zm-8.1-52.54c.84,5.17,1.64,10.35,2.49,15.53.32,2,.7,3.91,1.06,5.87,2.48.13,5,.31,7.46.39a1.79,1.79,0,0,0,1.9-1.67c1-5,2.12-10.07,3.13-15.11,1-4.79,1.89-9.59,2.82-14.4.15-.77.32-1.54.41-2.31a1.73,1.73,0,0,0-1.46-2c-4.22-1.14-8.41-2.34-12.65-3.41-2.73-.69-5.51-1.17-8.27-1.75C235.75,135.58,236.8,141.88,237.82,148.19Zm-69,32.52c8.34-.08,14.8-6.22,14.77-14.82a14.53,14.53,0,0,0-14.88-14.77,14.8,14.8,0,0,0,.11,29.59Zm-54.73,62.16c-3.4,3.37-3.56,7-1.82,11.26,1.1,2.68,3.43,4.25,5.76,5.77,4.62,3,9.36,5.8,13.1,10,2.34,2.65,5.23,2.47,7.84.05s4.34-5.42,6.2-8.34a23.68,23.68,0,0,0,3.54-8.14,7.06,7.06,0,0,0-3.89-8.12c-2.76-1.45-5.47-3-8.17-4.55-3.09-1.79-6.21-3.47-9.63-3.22A16.91,16.91,0,0,0,114.05,242.87Zm-15-93.4c3.76-.73,7.52-1.45,11.27-2.19,7.76-1.53,15.54-3,23.26-4.64,13.53-2.95,27-6,40.54-9.1,2.33-.53,4.63-1.25,6.93-1.91.88-.26,1.71-.74,1.5-1.79a41.62,41.62,0,0,0-1.37-5.27,2.64,2.64,0,0,0-2.39-1.74,10.52,10.52,0,0,0-2.69,0c-5,.85-10,1.69-15,2.66q-10.17,2-20.29,4.18-18.27,3.95-36.49,8c-2.79.62-5.54,1.43-8.31,2.17-1.86.5-2.65,1.39-2.33,3.15a21.66,21.66,0,0,0,1.58,4.87,2.91,2.91,0,0,0,2.93,1.65A8.09,8.09,0,0,0,99,149.47Zm129.65-11.68a11.73,11.73,0,0,0-.16-2c-.33-1.5-.84-3-1.15-4.45-1.29-6.2-2.58-12.38-3.77-18.6-.72-3.82-1.24-7.69-1.86-11.53-.5-3.1-1-6.21-1.52-9.31-.19-1.13-.67-2-2-1.85-.78.06-1.57.06-2.34.17q-8.6,1.23-17.19,2.5c-3.18.47-6.35,1-9.53,1.48A1.76,1.76,0,0,0,187.54,96a10.45,10.45,0,0,0,.13,2.68c.54,2.58,1.21,5.14,1.8,7.72,2.09,9.28,4.09,18.58,6.28,27.83.72,3.05,1.92,6,2.93,9,.09.28.47.46.71.68.2-.24.48-.44.57-.72,1.12-3.54,2.19-7.11,3.31-10.65,1.59-5.05,3.06-10.15,5.41-14.93.18-.36.38-.72.59-1.1a3.56,3.56,0,0,1,.39.27c3.28,3.94,6.52,7.91,9.85,11.8,2.54,3,5.19,5.83,7.81,8.72a5,5,0,0,0,1.07.72A3,3,0,0,0,228.69,137.79ZM255,247.41c1,5.08,1.87,10.17,2.92,15.22.5,2.38.48,2.8-1.85,3.41-7.08,1.84-14.19,3.61-21.29,5.38-2.17.54-4.36,1-6.55,1.5.16,1.2.25,2.42.49,3.6a24.8,24.8,0,0,0,22.69,20.05A23.85,23.85,0,0,0,266.05,293a24.35,24.35,0,0,0,11.87-18.72,25.09,25.09,0,0,0-23-27.61A3.86,3.86,0,0,0,255,247.41ZM241.9,237c-1-5.06-1.93-10.12-2.86-15.18-1.59-8.62-3.06-17.26-4.74-25.86-1.35-6.95-3.08-13.83-4.39-20.78-.59-3.18-1.4-2.86-4-2.77l-.22,0-25.75,5.29c-1.82.38-2.26,1.32-1.84,3.11.86,3.69,1.69,7.39,2.38,11.12,1,5.41,1.77,10.87,2.76,16.28,2.22,12.07,4.5,24.12,6.76,36.17.21,1.15.72,1.64,1.87,1.66a7.91,7.91,0,0,0,1.29,0c4.56-.75,9.13-1.4,13.65-2.28s8.94-2,13.4-3c1.78-.4,1.92-.57,1.93-2.25C242,238,242,237.44,241.9,237ZM70.8,322.13q1.58,8.6,3.26,17.17c.08.44.61.78.94,1.17.38-.32.92-.58,1.12-1,1.75-3.65,3.41-7.34,5.16-11,4.09-8.54,8.26-17,12.3-25.59a72.7,72.7,0,0,0,2.93-7.6c.44-1.28-.07-2-1.33-2.51-.64-.25-1.27-.47-1.91-.71Q80.64,287.45,68,282.8a1,1,0,0,0-1.49.7c-.31.87-.51,1.79-.82,2.66L51.85,323.72c-1.12,3-2.24,6-3.32,9.07-.09.24,0,.74.09.81a1.64,1.64,0,0,0,1.09.09c.28-.08.49-.4.72-.62,1.09-1,2.14-2,3.28-2.95,3.81-3.09,7.67-6.14,11.47-9.23,1.6-1.3,3.14-2.68,4.85-4.14C70.31,318.69,70.49,320.42,70.8,322.13Zm196.06-246c-4.7.09-8.93-1.52-13.12-3.38-5.48-2.42-11-4.86-16.52-7-4.32-1.71-9-2.14-13.57-2.62-3.13-.33-6.3-.5-9.39-1.11-4.68-.91-6.69-4.38-5.65-9,1.08-4.83,4.07-8.25,8-10.94a41.17,41.17,0,0,1,18.48-7.45,30.12,30.12,0,0,1,16.76,2.7c2.27,1.06,4.51,2.2,6.76,3.3a25.35,25.35,0,0,0,9.7,2.14c4.16.27,8.31.45,12.44.89a15.78,15.78,0,0,1,9,3.66c3.91,3.45,4.87,8.74,2.58,13.67a23.11,23.11,0,0,1-7.42,8.65A30.92,30.92,0,0,1,270,76c-1,.13-2.07.14-3.1.21"/></g><path class="cls-7" d="M157,248.71c0-.32-.06-.64-.13-1-.76-3-1.49-6-2.28-8.92-.75-2.8-1.52-5.59-2.35-8.36-.51-1.69-1.44-2.12-3.11-1.65-.65.19-1.29.43-2,.6a2.63,2.63,0,0,0-1.84,3.39c.89,3,1.64,6,2.61,8.94s2.1,5.93,3.27,8.84c.56,1.4,1.53,1.66,2.88,1a7.48,7.48,0,0,0,1.87-1.06,9.49,9.49,0,0,0,1.25-1.66Zm3.34-52.21a29,29,0,0,1,4-1.51c6.46-1.36,12.93-2.61,19.39-3.91,2.1-.42,4.2-.84,6.29-1.31,1.32-.3,1.88-1.05,1.58-2.23a13.73,13.73,0,0,0-1.07-2.91,2.92,2.92,0,0,0-3.08-1.66c-3.31.74-6.61,1.5-9.92,2.23-5.43,1.19-10.88,2.33-16.32,3.53-1.84.41-3.68.89-5.5,1.39-.85.23-1.42.72-1,1.74.58,1.28,1.11,2.59,1.74,3.85a2.33,2.33,0,0,0,2.25,1.33C159.25,196.86,159.79,196.7,160.32,196.5Zm2.14,39.55a9.35,9.35,0,0,0,9.38-9.32,8.94,8.94,0,0,0-9.12-8.87c-4.9.07-9.61,4.62-9.23,9.42A8.55,8.55,0,0,0,162.46,236.05Zm60.11,37.8c-1.65.28-3.28.62-4.93.92l-11.13,2c0,.28-.08.56-.13.84-.6,3.37-1.6,6.66-1.43,10.14.14,2.89,2,4.41,4.78,3.67a17.86,17.86,0,0,1,6-.65c1.35.11,2.69.39,4,.39a5.16,5.16,0,0,0,5.39-4.4,19.59,19.59,0,0,0,.21-4.9c-.18-2.73-.28-5.51-1.9-7.91A3.09,3.09,0,0,0,222.57,273.85ZM243,181.73c.23,1.68.52,3.37.79,5.05.55.08,1.13.14,1.68.26q16.1,3.36,32.16,6.76c3.25.69,6.48,1.43,9.72,2.15a1.87,1.87,0,0,0,2.53-1.92c0-.36.08-.71.11-1.06.11-1.5.31-3,.29-4.49-.06-2.25-1-3.32-3.17-3.81-4.12-.92-8.25-1.74-12.35-2.69-10.75-2.47-21.54-4.71-32.47-6.18C242.48,177.78,242.69,179.76,243,181.73Zm-52.13-22.17c.62,1.85,1.42,3.65,2,5.52a36.62,36.62,0,0,1,.57,3.8c.63,3.71,2.7,5.45,6.25,5.16a12.68,12.68,0,0,0,3.34-.71c2.68-1,5.28-2.21,8-3.11,3.14-1.06,6.38-1.83,9.55-2.81a8.32,8.32,0,0,0,5.42-9.27,9.77,9.77,0,0,0-4.07-6.32c-3.82-3-8.06-4.81-13-4.43-4.08.32-8.17.71-12.21,1.4a7.93,7.93,0,0,0-6.75,7.28C190.21,157.23,190.45,158.42,190.83,159.56ZM98,130.64c5.56-1.17,11.1-2.32,16.65-3.5l26.88-5.77,17.58-3.73c5.07-1.07,10.13-2.13,15.18-3.23,1.24-.27,2.48-.72,2.64-2.25a6.9,6.9,0,0,0-.2-1.91c-.47-2.41-.88-4.85-1.5-7.22s-2.21-3.17-4.59-2.71c-2.21.43-4.42.77-6.63,1.16q-8.32,1.47-16.64,2.94l-12.74,2.24c-5.2.9-10.4,1.75-15.59,2.7-4.66.84-9.32,1.71-14,2.71s-9.25,2.13-13.86,3.25c-1.52.38-2.57,1.78-2.25,3,.8,2.89,1.58,5.8,2.54,8.64.74,2.21,2.34,4.1,4.91,3.93C97,130.78,97.51,130.75,98,130.64ZM285.76,292.5a21.8,21.8,0,0,1,0-2.29c.39-3.47.82-6.94,1.25-10.4.48-3.9,1-7.78,1.46-11.68.33-2.83.58-5.67.91-8.51s.75-5.87,1.15-8.8c.46-3.32.93-6.63,1.43-9.95q1-6.7,2.05-13.42c.22-1.37.5-2.73.75-4.1a37.73,37.73,0,0,1,13.93-2.07,38.46,38.46,0,0,1,22.51,8.32,37.61,37.61,0,0,1,14,23.1c2.22,11.7-.49,22.3-7.79,31.63A38.82,38.82,0,0,1,290.14,295c-1.52-.72-2.92-1.67-4.38-2.5"/><g class="cls-8"><path class="cls-9" d="M217.48,301.46c0,.46,0,.94,0,1.4.13,2.12,1.33,3.5,3.22,3.66,3.35.3,6.7.53,10,.88s6.6.79,9.9,1.21c3.93.51,7.86,1.07,11.79,1.55,4.3.52,8.59,1,12.9,1.45a21.92,21.92,0,0,0,4.58.05,2,2,0,0,0,1.76-2.68,17.06,17.06,0,0,0-1.05-2.93,3.55,3.55,0,0,0-3-2.12c-2.7-.29-5.41-.54-8.1-.91q-6.42-.87-12.83-1.88c-6.32-1-12.62-2.12-18.93-3.12-2.57-.41-5.17-.67-7.76-1a1.43,1.43,0,0,0-1.75,1.05c-.34,1.09-.72,2.18-1.07,3.26Zm42.93-143.88c1.38,8.36,8,13.59,16,14.3a20.65,20.65,0,0,0,20.47-12,16.42,16.42,0,0,0-.29-15.21c-3.29-6.1-8.76-8.87-15.53-9.12a20.13,20.13,0,0,0-10.81,3.08,18.89,18.89,0,0,0-10,16.35A24.48,24.48,0,0,0,260.41,157.58Zm-58.89,120.3.18-.2Zm-74.17-7.3a6.62,6.62,0,0,0-9.61,1.08,8.36,8.36,0,0,0,.08,9.65,7.22,7.22,0,0,0,8.3,3.15,7,7,0,0,0,4.57-6.86A8.77,8.77,0,0,0,127.35,270.58ZM248.06,212c.7,3.46,1.43,6.92,2.14,10.38l.73.15c7.56,1.36,15.11,2.73,22.67,4,1.76.31,3.53.56,5.3.7a1.9,1.9,0,0,0,2.11-2c.11-1,.31-2.05.37-3.08.2-3.64.14-5-3.91-5.84l-.42-.09c-5.67-1.15-11.35-2.24-17-3.46-4.09-.87-8.14-1.9-12.21-2.87C247.9,210.62,247.93,211.3,248.06,212ZM200.47,277.9c-4.22.73-8.44,1.44-12.64,2.23-5.4,1-10.79,2.07-16.17,3.14-2.8.55-5.59,1.16-8.38,1.74q-.93,5.12-1.88,10.22c-.36,1.92.25,3.12,2.18,3.5,4.66.94,9.32,1.85,14,2.58,4.94.77,9.94,1.19,14.86,2a3.62,3.62,0,0,0,4.48-2.6,30.07,30.07,0,0,0,1.14-4.46c.7-3.94,1.26-7.9,2-11.84.4-2.21,1-4.39,1.5-6.58A7.61,7.61,0,0,0,200.47,277.9Zm-24.33-29.64a12.57,12.57,0,0,0,7.78.64,28.77,28.77,0,0,0,9.46-4,37.54,37.54,0,0,0,5.82-4.53,6.76,6.76,0,0,0,2.14-6.85c-.62-2.27-1.5-4.47-2.28-6.69-.6-1.71-1.35-3.4-1.78-5.15a47.58,47.58,0,0,1-.71-5.09,10.93,10.93,0,0,0-4.89-8.1,7.07,7.07,0,0,0-5.53-1.13,17.35,17.35,0,0,0-11.69,8.38c-1.84,3-2.77,6.17-1.75,9.63s.51,6.92-.49,10.34c-.47,1.64-.7,3.35-1,5A8,8,0,0,0,176.14,248.26Zm70.39,9.07c0-2.11.07-4.22,0-6.33a26.33,26.33,0,0,0-.56-4.24c-.51-2.41-1.61-3.06-4-2.62-4.75.85-9.52,1.59-14.23,2.56-10.32,2.12-20.63,4.35-30.94,6.54l-23,4.83c-3.53.73-7.08,1.37-10.6,2.16-2.32.52-3.12,1.92-2.65,4.22.11.52.16,1.06.3,1.57.78,2.83,1.41,5.7,2.42,8.44.78,2.12,2.71,2.91,4.91,2.5l11.37-2.14c9.22-1.77,18.47-3.44,27.67-5.34,10.35-2.13,20.67-4.43,31-6.7,2.16-.47,4.3-1.06,6.42-1.7,1.76-.53,2.16-1.19,2.13-3v-.75Zm-95.08-40.87c-.7-3.17-1.52-6.32-2.06-9.52-.47-2.74-.59-5.54-.89-8.31-.4-3.61-.79-7.24-1.25-10.85s-.91-7.52-1.61-11.23c-1.23-6.56-2.66-13.08-4-19.62-.33-1.6-1.08-2.1-2.83-1.8s-3.29.63-4.93,1q-7.4,1.54-14.78,3.12a149.94,149.94,0,0,0-19,4.83,2.68,2.68,0,0,0-1.92,3.14c.27,1.81.53,3.61.9,5.39,1.92,9.23,3.76,18.49,5.87,27.67,2.35,10.17,5,20.28,7.45,30.41.41,1.69,1.31,2.27,3,1.87,2.67-.64,5.36-1.25,8-2.06,6-1.85,11.89-3.72,17.77-5.77,3-1.06,5.91-2.55,8.89-3.77a2.33,2.33,0,0,0,1.82-2.48C151.73,217.79,151.6,217.12,151.45,216.46ZM351,115.71c2.38,5.92,4.74,11.85,7.16,17.75q1.94,4.72,4.05,9.37a1.79,1.79,0,0,0,1.3,1c.41,0,.87-.7,1.13-1.18a2.81,2.81,0,0,0,.2-1.36c-.05-1.9-.19-3.8-.2-5.7-.09-10.65-.14-21.31-.22-32-.05-6-.17-12.05-.2-18.08,0-2,.16-4,.19-6a3.62,3.62,0,0,0-4.16-3.86l-6.11.44c-2.39.18-4.8.3-7.18.57-3.37.39-6.74.9-10.1,1.35a1.64,1.64,0,0,0-1.55,1.74c0,.68,0,1.36,0,2-.23,4-.59,7.93-.72,11.9-.18,5.7-.18,11.4-.29,17.1-.06,3.3-.22,6.6-.26,9.89q-.13,10.17-.16,20.34a1.53,1.53,0,0,0,.73,1.22,1.59,1.59,0,0,0,1.3-.63,23.63,23.63,0,0,0,1.82-2.91c3.15-5.67,6.26-11.37,9.41-17,1.17-2.08,2.44-4.1,3.67-6.16C350.86,115.63,350.94,115.66,351,115.71Zm-268.7,55c.1,19.9-16.27,37.41-38,37.44A37.88,37.88,0,0,1,6.43,170.35c-.16-20.49,17.3-38.18,38.27-37.95,20.28.21,37.81,16.89,37.56,38.27"/></g></g></svg>